<svg width="335" height="240" viewBox="0 0 335 240" fill="none" xmlns="http://www.w3.org/2000/svg">
<path opacity="0.23" d="M258.187 64.2019C273.472 27.9334 243.208 0 185.183 0C121.794 0 49.2809 33.335 23.2195 74.4558C9.42416 96.2227 11.4115 115.807 25.7385 129.421C19.1698 135.688 13.6619 142.211 9.41531 148.912C-21.0797 197.028 24.9431 236.034 112.21 236.034C199.478 236.034 294.943 197.028 325.438 148.912C351.471 107.835 321.738 73.3998 258.187 64.2019Z" fill="url(#paint0_linear_302_179)"/>
<path d="M31.1285 221.629C31.1285 229.523 37.5382 235.922 45.4449 235.922H292.803C300.71 235.922 307.119 229.523 307.119 221.629V76.59H31.1285V221.629Z" fill="url(#paint1_linear_302_179)"/>
<path d="M292.803 50.1135H45.4449C37.5382 50.1135 31.1285 56.5129 31.1285 64.407V76.59H307.119V64.407C307.119 56.5129 300.71 50.1135 292.803 50.1135Z" fill="url(#paint2_linear_302_179)"/>
<ellipse cx="40.9875" cy="64.9286" rx="2.75453" ry="2.75011" fill="white"/>
<ellipse cx="51.9013" cy="64.9286" rx="2.75453" ry="2.75011" fill="white"/>
<ellipse cx="62.8151" cy="64.9286" rx="2.75453" ry="2.75011" fill="white"/>
<rect x="54.4036" y="96.4816" width="69.7841" height="93.4398" rx="7.84336" fill="white"/>
<rect x="60.4165" y="104.158" width="57.7583" height="52.3307" rx="4.68238" fill="url(#paint3_linear_302_179)"/>
<rect x="64.6881" y="165.839" width="47.5426" height="5.30708" rx="2.65354" fill="url(#paint4_linear_302_179)"/>
<rect x="64.6881" y="173.95" width="34.5779" height="5.30708" rx="2.65354" fill="url(#paint5_linear_302_179)"/>
<path opacity="0.56" d="M75.7948 119.502C73.9478 128.451 73.4936 137.818 73.4125 147.299H78.9713C79.1165 141.565 79.0386 135.534 80.2947 131.283L80.857 131.546L80.6666 137.466L84.3486 138.025V139.333L80.6247 138.768L80.4958 142.799C82.127 144.269 85.2467 145.06 88.4815 145.174V115.219C87.3567 115.283 86.2288 115.171 85.1384 114.888C87.5637 113.846 91.0881 114.012 92.5511 114.491C91.9035 115.055 90.9656 115.294 89.92 115.418V145.179C93.2233 145.089 96.4321 144.296 98.095 142.799L97.9661 138.773L94.2831 139.333V138.025L97.9241 137.473L97.7337 131.546L98.296 131.283C99.5522 135.534 99.4763 141.565 99.62 147.299H105.179C105.1 137.818 104.645 128.451 102.797 119.502C100.524 118.195 97.8563 117.117 94.7195 116.313V114.142C90.9268 113.109 87.2168 113.058 83.601 114.142V116.385C80.5828 117.18 78.0031 118.233 75.7947 119.502H75.7948Z" fill="url(#paint6_linear_302_179)"/>
<rect x="226.996" y="96.4816" width="69.7841" height="93.4398" rx="7.84336" fill="white"/>
<rect x="233.009" y="104.158" width="57.7583" height="52.3307" rx="4.68238" fill="url(#paint7_linear_302_179)"/>
<rect x="237.281" y="165.839" width="47.5426" height="5.30708" rx="2.65354" fill="url(#paint8_linear_302_179)"/>
<rect x="237.281" y="173.95" width="34.5779" height="5.30708" rx="2.65354" fill="url(#paint9_linear_302_179)"/>
<path opacity="0.44" d="M270.706 122.293V118.085H262.899V128.102C262.897 128.659 262.445 129.11 261.888 129.11C261.332 129.11 260.88 128.659 260.878 128.102V118.085H253.072V122.369C253.072 125.689 251.148 128.709 248.139 130.113L246.61 130.827V147.044C246.61 147.347 246.73 147.637 246.945 147.851C247.159 148.065 247.449 148.186 247.752 148.186H258.088C258.63 148.186 259.098 147.805 259.207 147.274L261.33 136.954H262.446L264.569 147.274C264.678 147.805 265.146 148.186 265.688 148.186H276.024C276.327 148.186 276.618 148.065 276.832 147.851C277.046 147.637 277.166 147.347 277.166 147.044V130.752L275.638 130.038C272.628 128.634 270.705 125.613 270.706 122.293Z" fill="url(#paint10_linear_302_179)"/>
<path opacity="0.44" d="M272.815 118.085V122.293C272.82 124.792 274.267 127.064 276.53 128.126L277.167 128.424V118.085L272.815 118.085Z" fill="url(#paint11_linear_302_179)"/>
<path opacity="0.44" d="M250.962 122.369V118.085H246.61V128.499L247.247 128.202C249.509 127.14 250.956 124.868 250.962 122.369Z" fill="url(#paint12_linear_302_179)"/>
<path opacity="0.44" d="M277.029 113.975C277.029 113.139 276.351 112.461 275.515 112.461H248.262C247.425 112.461 246.748 113.139 246.748 113.975V116.545H277.029V113.975Z" fill="url(#paint13_linear_302_179)"/>
<rect x="140.7" y="96.4816" width="69.7841" height="93.4398" rx="7.84336" fill="white"/>
<rect x="146.713" y="104.158" width="57.7583" height="52.3307" rx="4.68238" fill="url(#paint14_linear_302_179)"/>
<rect x="150.984" y="165.839" width="47.5426" height="5.30708" rx="2.65354" fill="url(#paint15_linear_302_179)"/>
<rect x="150.984" y="173.95" width="34.5779" height="5.30708" rx="2.65354" fill="url(#paint16_linear_302_179)"/>
<path opacity="0.57" d="M191.376 147.681L187.13 116.877C187.044 116.254 186.429 115.784 185.698 115.784H165.485C164.755 115.784 164.14 116.254 164.054 116.877L159.808 147.68C159.706 148.416 160.376 149.064 161.239 149.064H172.361C173.119 149.064 173.748 148.56 173.799 147.91L175.28 129.249C175.309 128.883 175.935 128.884 175.963 129.25L177.388 147.908C177.437 148.558 178.067 149.064 178.826 149.064H189.945C190.808 149.064 191.478 148.417 191.376 147.681Z" fill="#FE7A80"/>
<path opacity="0.57" d="M165.613 113.719H185.478C186.068 113.719 186.546 113.241 186.546 112.651C186.546 112.061 186.068 111.582 185.478 111.582H165.613C165.023 111.582 164.545 112.061 164.545 112.651C164.545 113.241 165.023 113.719 165.613 113.719Z" fill="#FE7A80"/>
<path d="M232.667 197.179H252.857C253.408 197.177 253.933 196.943 254.301 196.534C254.67 196.124 254.849 195.578 254.794 195.03C254.559 192.586 253.918 190.199 252.898 187.966C252.67 187.466 252.242 187.086 251.719 186.918C251.196 186.75 250.626 186.811 250.15 187.085L232.667 197.179L232.667 197.179Z" fill="url(#paint17_linear_302_179)"/>
<path d="M232.667 197.179L250.147 187.087C250.623 186.811 250.961 186.346 251.076 185.808C251.191 185.269 251.073 184.707 250.752 184.26C249.325 182.266 247.58 180.521 245.586 179.094C245.139 178.773 244.577 178.655 244.038 178.77C243.5 178.885 243.035 179.223 242.759 179.699L232.667 197.179H232.667Z" fill="url(#paint18_linear_302_179)"/>
<path d="M219.748 179.094C217.755 180.521 216.009 182.266 214.583 184.26C214.261 184.707 214.143 185.269 214.258 185.808C214.374 186.346 214.711 186.811 215.188 187.087L226.378 193.548C228.102 194.543 230.031 192.614 229.036 190.889L222.575 179.699C222.299 179.223 221.834 178.885 221.296 178.77C220.757 178.655 220.195 178.773 219.748 179.094Z" fill="url(#paint19_linear_302_179)"/>
<path d="M232.667 197.179L215.184 187.085C214.708 186.811 214.138 186.75 213.615 186.918C213.092 187.086 212.664 187.466 212.437 187.966C211.416 190.199 210.775 192.586 210.541 195.03C210.485 195.578 210.664 196.124 211.033 196.534C211.402 196.943 211.926 197.177 212.478 197.179L232.667 197.179Z" fill="url(#paint20_linear_302_179)"/>
<circle cx="232.667" cy="197.179" r="7.06521" fill="url(#paint21_linear_302_179)"/>
<path d="M203.52 201.109H261.814V233.08C261.814 235.65 259.73 237.733 257.16 237.733H208.174C205.604 237.733 203.52 235.65 203.52 233.08V201.109Z" fill="url(#paint22_linear_302_179)"/>
<mask id="mask0_302_179" style="mask-type:luminance" maskUnits="userSpaceOnUse" x="203" y="201" width="59" height="37">
<path fill-rule="evenodd" clip-rule="evenodd" d="M203.52 201.109H261.814V233.08C261.814 235.65 259.73 237.733 257.16 237.733H208.174C205.604 237.733 203.52 235.65 203.52 233.08V201.109Z" fill="white"/>
</mask>
<g mask="url(#mask0_302_179)">
<rect opacity="0.09" x="179.351" y="223.533" width="75.3275" height="6.16551" transform="rotate(-27.3702 179.351 223.533)" fill="white"/>
<rect opacity="0.09" x="188.508" y="231.81" width="75.3275" height="6.16551" transform="rotate(-27.3702 188.508 231.81)" fill="white"/>
<rect opacity="0.09" x="198.701" y="238.875" width="75.3275" height="6.16551" transform="rotate(-27.3702 198.701 238.875)" fill="white"/>
<rect opacity="0.09" x="209.758" y="244.506" width="75.3275" height="6.16551" transform="rotate(-27.3702 209.758 244.506)" fill="white"/>
<rect opacity="0.09" x="217.546" y="252.311" width="75.3275" height="6.16551" transform="rotate(-27.3702 217.546 252.311)" fill="white"/>
</g>
<rect x="199.225" y="193.611" width="66.8841" height="12.5791" rx="2.43501" fill="url(#paint23_linear_302_179)"/>
<rect x="224.763" y="193.385" width="15.8084" height="44.348" fill="url(#paint24_linear_302_179)"/>
<path d="M269.643 213.515H280.329C280.621 213.514 280.899 213.39 281.094 213.173C281.289 212.957 281.384 212.668 281.354 212.378C281.23 211.084 280.891 209.821 280.351 208.639C280.23 208.374 280.004 208.173 279.727 208.084C279.45 207.995 279.148 208.027 278.896 208.172L269.643 213.515Z" fill="url(#paint25_linear_302_179)"/>
<path d="M269.643 213.515L278.895 208.173C279.147 208.027 279.325 207.781 279.386 207.496C279.447 207.211 279.385 206.914 279.215 206.677C278.46 205.622 277.536 204.698 276.481 203.943C276.244 203.773 275.947 203.71 275.662 203.771C275.376 203.832 275.13 204.011 274.984 204.263L269.643 213.515H269.643Z" fill="url(#paint26_linear_302_179)"/>
<path d="M262.805 203.943C261.749 204.698 260.826 205.622 260.071 206.677C259.9 206.914 259.838 207.211 259.899 207.496C259.96 207.781 260.139 208.027 260.391 208.173L266.314 211.593C267.226 212.12 268.248 211.099 267.721 210.186L264.301 204.263C264.155 204.011 263.909 203.832 263.624 203.771C263.339 203.71 263.041 203.773 262.805 203.943Z" fill="url(#paint27_linear_302_179)"/>
<path d="M269.643 213.515V202.829C269.642 202.537 269.518 202.259 269.301 202.064C269.085 201.869 268.795 201.774 268.505 201.803C267.212 201.928 265.948 202.267 264.767 202.807C264.502 202.927 264.3 203.154 264.212 203.431C264.123 203.708 264.155 204.009 264.3 204.261L269.643 213.515H269.643Z" fill="url(#paint28_linear_302_179)"/>
<path d="M274.519 202.807C273.337 202.267 272.074 201.928 270.78 201.803C270.49 201.774 270.201 201.869 269.984 202.064C269.768 202.259 269.644 202.537 269.643 202.829V209.671C269.643 210.725 271.038 211.099 271.565 210.186L274.985 204.261C275.131 204.009 275.163 203.708 275.074 203.431C274.985 203.154 274.784 202.927 274.519 202.807Z" fill="url(#paint29_linear_302_179)"/>
<path d="M269.643 213.515L260.389 208.172C260.137 208.027 259.835 207.995 259.559 208.084C259.282 208.173 259.055 208.374 258.935 208.639C258.395 209.821 258.055 211.084 257.931 212.378C257.902 212.668 257.996 212.957 258.192 213.173C258.387 213.39 258.665 213.514 258.956 213.515H269.643Z" fill="url(#paint30_linear_302_179)"/>
<circle cx="269.643" cy="213.515" r="3.73962" fill="url(#paint31_linear_302_179)"/>
<path d="M252.547 216.251H286.739V235.004C286.739 236.511 285.517 237.733 284.009 237.733H255.276C253.769 237.733 252.547 236.511 252.547 235.004V216.251Z" fill="url(#paint32_linear_302_179)"/>
<mask id="mask1_302_179" style="mask-type:luminance" maskUnits="userSpaceOnUse" x="252" y="216" width="35" height="22">
<path fill-rule="evenodd" clip-rule="evenodd" d="M252.547 216.251H286.739V235.004C286.739 236.511 285.517 237.733 284.009 237.733H255.276C253.769 237.733 252.547 236.511 252.547 235.004V216.251Z" fill="white"/>
</mask>
<g mask="url(#mask1_302_179)">
<rect opacity="0.09" x="249.236" y="218.869" width="46.9185" height="4.5631" fill="white"/>
<rect opacity="0.09" x="249.236" y="232.276" width="46.9185" height="4.5631" fill="white"/>
<rect opacity="0.09" x="249.236" y="226.164" width="46.9185" height="2.80772" fill="white"/>
<rect opacity="0.09" x="266.516" y="251.313" width="46.9185" height="4.5631" transform="rotate(-90 266.516 251.313)" fill="white"/>
<rect opacity="0.09" x="279.923" y="251.313" width="46.9185" height="4.5631" transform="rotate(-90 279.923 251.313)" fill="white"/>
<rect opacity="0.09" x="273.811" y="251.313" width="46.9185" height="2.80772" transform="rotate(-90 273.811 251.313)" fill="white"/>
<rect opacity="0.09" x="259.599" y="251.313" width="46.9185" height="4.5631" transform="rotate(-90 259.599 251.313)" fill="white"/>
<rect opacity="0.09" x="253.487" y="251.313" width="46.9185" height="2.80772" transform="rotate(-90 253.487 251.313)" fill="white"/>
</g>
<rect x="250.027" y="211.854" width="39.2305" height="7.37821" rx="1.42824" fill="url(#paint33_linear_302_179)"/>
<rect x="265.007" y="211.775" width="9.27233" height="25.9582" fill="url(#paint34_linear_302_179)"/>
<mask id="mask2_302_179" style="mask-type:luminance" maskUnits="userSpaceOnUse" x="265" y="211" width="10" height="27">
<rect x="265.007" y="211.775" width="9.27233" height="25.9582" fill="white"/>
</mask>
<g mask="url(#mask2_302_179)">
<rect x="263.569" y="219.232" width="12.1473" height="7.2516" fill="url(#paint35_linear_302_179)"/>
</g>
<path d="M275.011 211.64L276.946 212.572C277.824 212.995 278.341 213.663 278.341 214.373V226.824L280.734 224.392L284.168 226.621V214.254C284.168 213.461 283.523 212.727 282.471 212.324L281.02 211.767L275.011 211.64Z" fill="url(#paint36_linear_302_179)"/>
<path d="M101.69 188.986H101.052V183.048C101.052 178.666 104.605 175.113 108.987 175.113C113.369 175.113 116.922 178.666 116.922 183.048V188.589H116.284V183.048C116.284 179.018 113.017 175.751 108.987 175.751C104.957 175.751 101.69 179.018 101.69 183.048L101.69 188.986Z" fill="url(#paint37_linear_302_179)"/>
<path d="M130.001 237.291H91.4762L95.3909 186.771H126.086L130.001 237.291Z" fill="url(#paint38_linear_302_179)"/>
<path d="M122.711 237.291H84.1862L88.101 186.771H118.796L122.711 237.291Z" fill="url(#paint39_linear_302_179)"/>
<mask id="mask3_302_179" style="mask-type:luminance" maskUnits="userSpaceOnUse" x="84" y="186" width="39" height="52">
<path fill-rule="evenodd" clip-rule="evenodd" d="M122.711 237.291H84.1862L88.101 186.771H118.796L122.711 237.291Z" fill="white"/>
</mask>
<g mask="url(#mask3_302_179)">
<path d="M91.4761 185.18C94.278 231.298 101.735 235.674 122.711 237.291C143.688 238.908 84.1861 253.113 84.1861 253.113L70.4806 222.305L88.6327 175.113" fill="url(#paint40_linear_302_179)"/>
</g>
<path d="M96.1517 188.986H95.5139V183.048C95.5139 178.666 99.0665 175.113 103.449 175.113C107.831 175.113 111.383 178.666 111.383 183.048V188.589H110.746V183.048C110.746 179.018 107.479 175.751 103.449 175.751C99.4187 175.751 96.1517 179.018 96.1517 183.048L96.1517 188.986Z" fill="url(#paint41_linear_302_179)"/>
<path d="M71.0151 196.807H70.4806V191.83C70.4806 188.158 73.4579 185.18 77.1306 185.18C80.8034 185.18 83.7807 188.158 83.7807 191.83V196.474H83.2462V191.83C83.2462 188.453 80.5082 185.715 77.1306 185.715C73.7531 185.715 71.0151 188.453 71.0151 191.83L71.0151 196.807Z" fill="url(#paint42_linear_302_179)"/>
<path d="M94.7425 237.291H62.4548L65.7358 194.951H91.4615L94.7425 237.291Z" fill="url(#paint43_linear_302_179)"/>
<path d="M88.6328 237.291H56.3452L59.6261 194.951H85.3518L88.6328 237.291Z" fill="url(#paint44_linear_302_179)"/>
<mask id="mask4_302_179" style="mask-type:luminance" maskUnits="userSpaceOnUse" x="56" y="194" width="33" height="44">
<path fill-rule="evenodd" clip-rule="evenodd" d="M88.6328 237.291H56.3452L59.6261 194.951H85.3518L88.6328 237.291Z" fill="white"/>
</mask>
<g mask="url(#mask4_302_179)">
<path d="M62.4548 188.986C56.8033 259.059 114.946 239.238 114.946 239.238L35.33 259.792L45.5711 186.771" fill="url(#paint45_linear_302_179)"/>
</g>
<path d="M66.3734 196.807H65.8389V191.83C65.8389 188.158 68.8162 185.18 72.4889 185.18C76.1617 185.18 79.139 188.158 79.139 191.83V196.474H78.6045V191.83C78.6002 188.456 75.8634 185.722 72.4889 185.722C69.1145 185.722 66.3777 188.456 66.3734 191.83V196.807Z" fill="url(#paint46_linear_302_179)"/>
<rect x="108.513" y="162.606" width="112.601" height="75.0673" rx="6.94766" fill="url(#paint47_linear_302_179)"/>
<mask id="mask5_302_179" style="mask-type:luminance" maskUnits="userSpaceOnUse" x="108" y="162" width="114" height="76">
<rect x="108.513" y="162.606" width="112.601" height="75.0673" rx="6.94766" fill="white"/>
</mask>
<g mask="url(#mask5_302_179)">
<rect x="85.3763" y="174.946" width="147.05" height="13.3681" fill="url(#paint48_linear_302_179)"/>
<rect x="149.261" y="200.14" width="40.8757" height="7.06969" fill="url(#paint49_linear_302_179)"/>
<rect x="196.435" y="200.14" width="15.2511" height="7.06969" fill="url(#paint50_linear_302_179)"/>
<path d="M221.114 188.314C218.835 255.478 103.01 227.809 103.01 227.809L102.045 260.011L188.913 262.327L224.948 250.33L224.626 195.635" fill="url(#paint51_linear_302_179)"/>
</g>
<path d="M218.085 181.654C218.085 181.654 212.364 196.017 215.496 204.203L214.67 206.368L207.231 195.912L208.748 189.416L210.389 177.446L216.849 181.557L218.085 181.654Z" fill="url(#paint52_linear_302_179)"/>
<mask id="mask6_302_179" style="mask-type:luminance" maskUnits="userSpaceOnUse" x="207" y="177" width="12" height="30">
<path fill-rule="evenodd" clip-rule="evenodd" d="M218.085 181.654C218.085 181.654 212.364 196.017 215.496 204.203L214.67 206.368L207.231 195.912L208.748 189.416L210.389 177.446L216.849 181.557L218.085 181.654Z" fill="white"/>
</mask>
<g mask="url(#mask6_302_179)">
<path opacity="0.34" d="M208.576 187.342C209.067 182.068 215.708 184.87 218.085 184.153C220.462 183.436 207.786 180.965 207.786 180.965L207.534 183.295" fill="url(#paint53_linear_302_179)"/>
</g>
<path d="M208.748 189.416L205.538 191.5C204.681 192.048 204.256 193.07 204.471 194.064L208.33 203.977C208.735 205.005 209.564 205.808 210.604 206.181L219.625 209.462C219.625 209.462 221.481 207.436 215.496 204.203C206.795 201.155 208.748 189.416 208.748 189.416Z" fill="url(#paint54_linear_302_179)"/>
<path d="M206.639 181.946C206.639 181.946 217.819 185.275 220.299 184.395L224.626 158.935C225.166 155.755 223.151 152.692 219.965 151.85L189.861 143.893L192.729 133.738L179.715 134.868L176.333 149.836L178.813 158.861L209.251 163.043L206.639 181.946Z" fill="url(#paint55_linear_302_179)"/>
<mask id="mask7_302_179" style="mask-type:luminance" maskUnits="userSpaceOnUse" x="176" y="133" width="49" height="52">
<path fill-rule="evenodd" clip-rule="evenodd" d="M206.639 181.946C206.639 181.946 217.819 185.275 220.299 184.395L224.626 158.935C225.166 155.755 223.151 152.692 219.965 151.85L189.861 143.893L192.729 133.738L179.715 134.868L176.333 149.836L178.813 158.861L209.251 163.043L206.639 181.946Z" fill="white"/>
</mask>
<g mask="url(#mask7_302_179)">
<path opacity="0.51" d="M185.955 144.185C185.955 144.185 189.308 150.787 192.535 151.711C199.303 153.651 199.016 155.076 198.099 158.81C197.183 162.543 207.231 163.85 207.231 163.85L198.51 166.79L188.138 160.37L185.955 144.185Z" fill="url(#paint56_linear_302_179)"/>
</g>
<path d="M202.149 213.56C202.149 213.56 201.924 228.969 207.786 235.572V237.884L197.076 230.62L196.174 224.016L193.432 212.24L200.956 213.891L202.149 213.56Z" fill="url(#paint57_linear_302_179)"/>
<mask id="mask8_302_179" style="mask-type:luminance" maskUnits="userSpaceOnUse" x="193" y="212" width="15" height="26">
<path fill-rule="evenodd" clip-rule="evenodd" d="M202.149 213.56C202.149 213.56 201.924 228.969 207.786 235.572V237.884L197.076 230.62L196.174 224.016L193.432 212.24L200.956 213.891L202.149 213.56Z" fill="white"/>
</mask>
<g mask="url(#mask8_302_179)">
<path opacity="0.34" d="M195.905 222.86C194.852 218.335 201.284 218.068 202.6 216.717C203.916 215.366 191.59 216.224 191.59 216.224L192.326 220.517" fill="url(#paint58_linear_302_179)"/>
</g>
<path d="M196.174 224.016L193.912 227.063C193.304 227.876 193.271 228.982 193.829 229.829L200.989 237.803C201.735 238.628 202.796 239.097 203.908 239.094H213.535C213.535 239.094 214.55 236.563 207.786 235.572C198.542 235.682 196.174 224.016 196.174 224.016Z" fill="url(#paint59_linear_302_179)"/>
<path d="M210.83 120.204C210.896 124.396 206.588 124.069 206.81 125.903L194.651 126.689L192.385 133.96L212.206 129.833V119.549L210.83 120.204Z" fill="url(#paint60_linear_302_179)"/>
<mask id="mask9_302_179" style="mask-type:luminance" maskUnits="userSpaceOnUse" x="192" y="119" width="21" height="15">
<path fill-rule="evenodd" clip-rule="evenodd" d="M210.83 120.204C210.896 124.396 206.588 124.069 206.81 125.903L194.651 126.689L192.385 133.96L212.206 129.833V119.549L210.83 120.204Z" fill="white"/>
</mask>
<g mask="url(#mask9_302_179)">
<path opacity="0.34" d="M197.068 125.142C196.335 129.138 198.174 132.746 200.523 132.909C202.873 133.073 192.385 136.389 192.385 136.389L189.873 128.658L197.068 125.142Z" fill="url(#paint61_linear_302_179)"/>
</g>
<ellipse cx="213.085" cy="130.557" rx="3.26999" ry="0.49755" fill="url(#paint62_linear_302_179)"/>
<path d="M216.355 130.557H209.815L208.887 116.582H217.284L216.355 130.557Z" fill="url(#paint63_linear_302_179)"/>
<mask id="mask10_302_179" style="mask-type:luminance" maskUnits="userSpaceOnUse" x="208" y="116" width="10" height="15">
<path fill-rule="evenodd" clip-rule="evenodd" d="M216.355 130.557H209.815L208.887 116.582H217.284L216.355 130.557Z" fill="white"/>
</mask>
<g mask="url(#mask10_302_179)">
<path d="M212.959 121.663C211.391 121.673 209.824 121.598 208.265 121.438V127.137C211.387 127.438 214.531 127.438 217.653 127.137V121.438C216.094 121.598 214.527 121.673 212.959 121.663Z" fill="url(#paint64_linear_302_179)"/>
</g>
<ellipse cx="213.085" cy="116.582" rx="4.41436" ry="0.61299" fill="url(#paint65_linear_302_179)"/>
<path d="M208.57 119.058C210.306 118.731 211.027 120.63 209.553 124.429L207.686 127.377L205.917 126.46L206.81 125.903C206.703 123.283 209.153 123.669 208.57 119.058Z" fill="url(#paint66_linear_302_179)"/>
<path d="M216.405 127.784C216.663 127.688 216.896 127.597 217.009 127.54L218.18 122.544C218.34 121.862 217.68 121.173 216.983 121.111L216.911 122.137C215.495 122.776 215.29 125.454 215.295 127.017C215.296 127.286 215.428 127.537 215.649 127.69C215.87 127.844 216.153 127.879 216.405 127.784Z" fill="url(#paint67_linear_302_179)"/>
<path d="M190.763 218.953C190.763 218.953 201.811 218.575 204.516 215.352L201.901 174.79C201.841 173.871 201.516 172.99 200.965 172.254L182.775 147.855L186.479 134.868L173.702 134.412L172.5 138.61L166.839 150.369C163.985 156.299 165.902 163.374 171.388 167.149L189.41 179.552L190.763 218.953Z" fill="url(#paint68_linear_302_179)"/>
<mask id="mask11_302_179" style="mask-type:luminance" maskUnits="userSpaceOnUse" x="165" y="134" width="40" height="85">
<path fill-rule="evenodd" clip-rule="evenodd" d="M190.763 218.953C190.763 218.953 201.811 218.575 204.516 215.352L201.901 174.79C201.841 173.871 201.516 172.99 200.965 172.254L182.775 147.855L186.479 134.868L173.702 134.412L172.5 138.61L166.839 150.369C163.985 156.299 165.902 163.374 171.388 167.149L189.41 179.552L190.763 218.953Z" fill="white"/>
</mask>
<g mask="url(#mask11_302_179)">
<path d="M182.681 130.059C170.429 165.366 168.671 160.973 186.519 176.91C200.523 189.416 157.419 179.543 157.419 179.543L162.355 145.965L163.031 142.022" fill="url(#paint69_linear_302_179)"/>
</g>
<path d="M178.554 132.416L192.729 133.738C192.729 133.738 201.418 110.198 192.46 101.485L175.205 103.133L179.009 136.389L178.554 132.416Z" fill="url(#paint70_linear_302_179)"/>
<path d="M171.646 132.34C180.727 136.758 194.058 134.72 196.512 131.775C194.897 114.327 202.954 111.8 194.359 102.547C193.838 101.991 193.154 101.615 192.405 101.475C189.258 100.876 180.333 99.731 172.505 103.992L171.646 132.34Z" fill="url(#paint71_linear_302_179)"/>
<mask id="mask12_302_179" style="mask-type:luminance" maskUnits="userSpaceOnUse" x="171" y="100" width="28" height="35">
<path fill-rule="evenodd" clip-rule="evenodd" d="M171.646 132.34C180.727 136.758 194.058 134.72 196.512 131.775C194.897 114.327 202.954 111.8 194.359 102.547C193.838 101.991 193.154 101.615 192.405 101.475C189.258 100.876 180.333 99.731 172.505 103.992L171.646 132.34Z" fill="white"/>
</mask>
<g mask="url(#mask12_302_179)">
<ellipse cx="185.767" cy="102.262" rx="3.9707" ry="6.99497" transform="rotate(-62.2285 185.767 102.262)" fill="url(#paint72_linear_302_179)"/>
<path d="M180.972 110.496C185.323 134.878 192.385 135.162 198.276 131.726L202.295 136.389C202.295 136.389 178.164 136.52 173.678 137.682C169.191 138.844 165.205 135.408 165.205 135.408L170.541 122.031L179.886 112.337" fill="url(#paint73_linear_302_179)"/>
</g>
<path d="M182.131 98.7736C155.027 106.456 179.886 77.9802 185.918 79.823C196.457 75.6578 198.855 100.965 188.284 98.7557L182.131 98.7736Z" fill="url(#paint74_linear_302_179)"/>
<mask id="mask13_302_179" style="mask-type:luminance" maskUnits="userSpaceOnUse" x="169" y="79" width="27" height="22">
<path fill-rule="evenodd" clip-rule="evenodd" d="M182.131 98.7736C155.027 106.456 179.886 77.9802 185.918 79.823C196.457 75.6578 198.855 100.965 188.284 98.7557L182.131 98.7736Z" fill="white"/>
</mask>
<g mask="url(#mask13_302_179)">
<path d="M171.339 92.7016C179.41 99.4176 181.447 96.3302 182.038 93.5955C182.629 90.8608 182.936 97.733 182.936 97.733L182.813 99.7579L174.162 98.8927L170.419 94.481" fill="url(#paint75_linear_302_179)"/>
</g>
<path d="M188.379 94.5274L187.811 103.426L181.316 101.629L182.114 90.5739L188.379 94.5274Z" fill="url(#paint76_linear_302_179)"/>
<mask id="mask14_302_179" style="mask-type:luminance" maskUnits="userSpaceOnUse" x="181" y="90" width="8" height="14">
<path fill-rule="evenodd" clip-rule="evenodd" d="M188.379 94.5274L187.811 103.426L181.316 101.629L182.114 90.5739L188.379 94.5274Z" fill="white"/>
</mask>
<g mask="url(#mask14_302_179)">
<path opacity="0.34" d="M182.557 93.3878C186.692 98.5528 183.477 99.3318 188.554 100.281C193.63 101.231 187.109 94.701 187.109 94.701L183.038 93.5955" fill="url(#paint77_linear_302_179)"/>
</g>
<path d="M182.699 86.0708L181.752 93.3599C181.752 93.3599 184.676 97.886 188.284 98.7557C192.017 99.6556 193.661 89.8573 192.582 86.7334C191.503 83.6095 186.391 83.0416 186.391 83.0416L181.752 86.7334L182.699 86.0708Z" fill="url(#paint78_linear_302_179)"/>
<path d="M180.743 88.2165C180.743 88.2165 190.299 91.6846 191.624 85.2474C191.624 85.2474 194.869 92.7312 194.244 85.9466C194.244 85.9466 190.462 79.3812 185.602 80.959C180.743 82.5367 180.743 88.2165 180.743 88.2165Z" fill="url(#paint79_linear_302_179)"/>
<path d="M183.619 89.5569C179.018 85.5964 178.887 92.0854 182.038 93.5955L183.619 89.5569Z" fill="url(#paint80_linear_302_179)"/>
<path d="M169.224 111.857C169.224 111.857 170.821 135.295 171.305 135.98L192.13 162.253C192.13 162.253 194.091 162.506 191.945 156.467C190.677 152.897 192.425 153.626 191.579 152.409C190.732 151.193 187.081 148.5 187.081 148.5L180 133.728L178.404 106.168L169.224 111.857Z" fill="url(#paint81_linear_302_179)"/>
<mask id="mask15_302_179" style="mask-type:luminance" maskUnits="userSpaceOnUse" x="169" y="106" width="24" height="57">
<path fill-rule="evenodd" clip-rule="evenodd" d="M169.224 111.857C169.224 111.857 170.821 135.295 171.305 135.98L192.13 162.253C192.13 162.253 194.091 162.506 191.945 156.467C190.677 152.897 192.425 153.626 191.579 152.409C190.732 151.193 187.081 148.5 187.081 148.5L180 133.728L178.404 106.168L169.224 111.857Z" fill="white"/>
</mask>
<g mask="url(#mask15_302_179)">
<path opacity="0.34" d="M169.842 131.054C170.25 124.324 175.825 127.738 179.872 125.128C183.919 122.519 166.98 122.28 166.98 122.28L167.307 125.886L165.525 130.557" fill="url(#paint82_linear_302_179)"/>
</g>
<path d="M165.205 122.774C176.508 129.277 182.681 123.569 182.681 123.569L181.143 107.989C180.595 104.943 177.751 102.864 174.682 103.266C172.424 103.562 170.548 105.153 169.887 107.333L165.205 122.774Z" fill="url(#paint83_linear_302_179)"/>
<path d="M211.763 115.162H210.643L209.31 105.711H210.43L211.763 115.162Z" fill="url(#paint84_linear_302_179)"/>
<path d="M147.601 103.795C153.183 105.26 150.967 120.092 150.967 120.092L161.481 107.638L154.541 97.941L147.601 103.795Z" fill="url(#paint85_linear_302_179)"/>
<mask id="mask16_302_179" style="mask-type:luminance" maskUnits="userSpaceOnUse" x="147" y="97" width="15" height="24">
<path fill-rule="evenodd" clip-rule="evenodd" d="M147.601 103.795C153.183 105.26 150.967 120.092 150.967 120.092L161.481 107.638L154.541 97.941L147.601 103.795Z" fill="white"/>
</mask>
<g mask="url(#mask16_302_179)">
<path opacity="0.34" d="M149.863 111.291C155.461 106.359 151.05 104.334 153.647 101.255C156.243 98.1767 148.596 100.974 148.596 100.974L146.182 105.037L148.596 108.561" fill="url(#paint86_linear_302_179)"/>
</g>
<path d="M146.322 87.485C140.321 100.873 143.894 109.124 151.187 104.283C158.764 99.2544 155.597 95.7469 155.597 95.7469L150.241 88.4361L146.322 87.485Z" fill="url(#paint87_linear_302_179)"/>
<path d="M154.239 96.6569C150.92 97.5966 147.148 91.1666 148.808 88.7884C137.04 88.4361 142.205 81.3015 144.828 84.5605C139.755 73.7265 147.978 80.0683 148.732 84.4724C149.487 88.8765 155.899 91.4123 155.899 91.4123C155.899 91.4123 158.313 95.4826 158.313 95.7469C158.313 96.0111 156.352 101.648 156.352 101.648C156.352 101.648 152.086 101.063 154.239 96.6569Z" fill="url(#paint88_linear_302_179)"/>
<path d="M150.468 84.3822C140.525 64.2556 145.843 79.7139 148.597 85.0428C151.35 90.3718 150.468 84.3822 150.468 84.3822Z" fill="url(#paint89_linear_302_179)"/>
<path d="M148.596 85.0428C154.405 79.0533 165.771 89.7705 157.063 99.585L148.596 85.0428Z" fill="url(#paint90_linear_302_179)"/>
<path d="M148.481 112.709L157.458 102.629C158.571 101.271 160.535 102.065 160.691 103.935L160.837 105.692L148.481 112.709Z" fill="url(#paint91_linear_302_179)"/>
<path d="M139.141 124.391L131.167 118.688C131.167 118.688 128.841 107.748 128.409 107.515C127.977 107.282 121.199 103.325 121.199 103.325C121.199 103.325 119.377 104.405 124.588 107.864C124.588 107.864 123.492 112.287 123.592 112.752C123.691 113.218 128.775 124.391 128.775 124.391L134.556 131.141L139.141 124.391Z" fill="url(#paint92_linear_302_179)"/>
<path d="M117.8 106.129L115.892 107.473L108.029 92.2481C107.495 91.2142 107.78 89.8706 108.666 89.2471L108.971 89.0327L117.8 106.129Z" fill="url(#paint93_linear_302_179)"/>
<mask id="mask17_302_179" style="mask-type:luminance" maskUnits="userSpaceOnUse" x="107" y="89" width="11" height="19">
<path fill-rule="evenodd" clip-rule="evenodd" d="M117.8 106.129L115.892 107.473L108.029 92.2481C107.495 91.2142 107.78 89.8706 108.666 89.2471L108.971 89.0327L117.8 106.129Z" fill="white"/>
</mask>
<g mask="url(#mask17_302_179)">
<path d="M119.236 105.393L117.328 106.736L109.465 91.5119C108.931 90.478 109.216 89.1344 110.101 88.5109L110.406 88.2965L119.236 105.393Z" fill="url(#paint94_linear_302_179)"/>
</g>
<path d="M126.454 119.452L120.731 112.523C120.731 112.523 119.141 104.922 119.088 104.531C119.034 104.141 115.999 99.2712 115.407 101.109L116.359 103.323C116.593 103.867 116.444 104.528 116.012 104.867C115.585 105.202 115.012 105.12 114.667 104.674L110.735 99.5837C110.735 99.5837 108.91 100.513 111.517 104.199C111.517 104.199 111.116 110.471 111.878 111.591C112.64 112.711 116.634 115.814 117.12 117.233L126.454 132.138V119.452Z" fill="url(#paint95_linear_302_179)"/>
<mask id="mask18_302_179" style="mask-type:luminance" maskUnits="userSpaceOnUse" x="110" y="99" width="17" height="34">
<path fill-rule="evenodd" clip-rule="evenodd" d="M126.454 119.452L120.731 112.523C120.731 112.523 119.141 104.922 119.088 104.531C119.034 104.141 115.999 99.2712 115.407 101.109L116.359 103.323C116.593 103.867 116.444 104.528 116.012 104.867C115.585 105.202 115.012 105.12 114.667 104.674L110.735 99.5837C110.735 99.5837 108.91 100.513 111.517 104.199C111.517 104.199 111.116 110.471 111.878 111.591C112.64 112.711 116.634 115.814 117.12 117.233L126.454 132.138V119.452Z" fill="white"/>
</mask>
<g mask="url(#mask18_302_179)">
<path opacity="0.34" d="M124.56 116.269C120.113 115.784 121.492 122.453 119.41 120.89C117.328 119.326 118.45 125.163 118.45 125.163L121.859 126.218L124.477 125.163" fill="url(#paint96_linear_302_179)"/>
</g>
<path d="M118.298 182.299L123.953 204.517C123.953 204.517 116.487 210.809 116.792 210.009C117.316 208.636 110.679 192.867 110.679 192.867L118.298 182.299Z" fill="url(#paint97_linear_302_179)"/>
<mask id="mask19_302_179" style="mask-type:luminance" maskUnits="userSpaceOnUse" x="110" y="182" width="14" height="29">
<path fill-rule="evenodd" clip-rule="evenodd" d="M118.298 182.299L123.953 204.517C123.953 204.517 116.487 210.809 116.792 210.009C117.316 208.636 110.679 192.867 110.679 192.867L118.298 182.299Z" fill="white"/>
</mask>
<g mask="url(#mask19_302_179)">
<path opacity="0.34" d="M114.876 205.419C113.837 201.779 121.651 200.663 122.607 198.139C123.563 195.615 114.668 197.896 114.668 197.896L112.856 199.983" fill="url(#paint98_linear_302_179)"/>
</g>
<path d="M112.94 201.279C121.41 201.279 125.209 196.189 125.209 196.189L113.048 156.419L100.503 162.418L112.94 201.279Z" fill="url(#paint99_linear_302_179)"/>
<path d="M115.598 206.358C115.598 206.358 121.44 204.777 123.23 200.778L126.575 209.534C127.022 210.704 126.688 212.132 125.82 212.763L114.322 221.127C114.063 221.321 113.749 221.427 113.426 221.427L98.7198 221.294C99.6749 213.949 118.298 219.044 115.598 206.358Z" fill="url(#paint100_linear_302_179)"/>
<path d="M70.9172 213.538L85.3227 183.723L94.7994 187.804L82.9174 207.385L80.9424 217.832L70.9172 213.538Z" fill="url(#paint101_linear_302_179)"/>
<mask id="mask20_302_179" style="mask-type:luminance" maskUnits="userSpaceOnUse" x="70" y="183" width="25" height="35">
<path fill-rule="evenodd" clip-rule="evenodd" d="M70.9172 213.538L85.3227 183.723L94.7994 187.804L82.9174 207.385L80.9424 217.832L70.9172 213.538Z" fill="white"/>
</mask>
<g mask="url(#mask20_302_179)">
<path opacity="0.34" d="M80.3518 194.011C75.8067 193.383 86.4884 199.689 84.244 205.199C81.9996 210.708 87.2781 201.876 87.2781 201.876L86.1143 196.538" fill="url(#paint102_linear_302_179)"/>
</g>
<path d="M51.5508 221.539C52.9355 215.248 61.8564 216.923 67.566 212.988C73.2756 209.054 72.8728 205.537 72.8728 205.537L82.9174 208.859L81.4636 217.307C81.1771 218.972 79.8772 220.393 78.5936 220.445L51.5508 221.539Z" fill="url(#paint103_linear_302_179)"/>
<path d="M79.2087 193.29C79.2087 193.29 85.7878 203.872 91.5667 204.205L107.35 168.659L149.121 169.083C153.373 169.127 157.016 165.067 157.712 159.511L159.612 144.361L141.521 137.038L135.742 147.023L102.272 150.364C100.253 150.566 98.4288 152.036 97.3653 154.318L79.2087 193.29Z" fill="url(#paint104_linear_302_179)"/>
<mask id="mask21_302_179" style="mask-type:luminance" maskUnits="userSpaceOnUse" x="79" y="137" width="81" height="68">
<path fill-rule="evenodd" clip-rule="evenodd" d="M79.2087 193.29C79.2087 193.29 85.7878 203.872 91.5667 204.205L107.35 168.659L149.121 169.083C153.373 169.127 157.016 165.067 157.712 159.511L159.612 144.361L141.521 137.038L135.742 147.023L102.272 150.364C100.253 150.566 98.4288 152.036 97.3653 154.318L79.2087 193.29Z" fill="white"/>
</mask>
<g mask="url(#mask21_302_179)">
<path d="M135.742 147.023C169.739 170.621 136.578 166.717 136.821 170.621C137.065 174.525 172.067 169.603 172.067 169.603L141.521 137.038" fill="url(#paint105_linear_302_179)"/>
</g>
<path d="M128.409 142.003C128.409 142.003 147.794 156.59 158.426 156.59C158.426 156.59 172.533 124.623 160.837 105.692L148.481 112.709L128.409 142.003Z" fill="url(#paint106_linear_302_179)"/>
<mask id="mask22_302_179" style="mask-type:luminance" maskUnits="userSpaceOnUse" x="128" y="105" width="38" height="52">
<path fill-rule="evenodd" clip-rule="evenodd" d="M128.409 142.003C128.409 142.003 147.794 156.59 158.426 156.59C158.426 156.59 172.533 124.623 160.837 105.692L148.481 112.709L128.409 142.003Z" fill="white"/>
</mask>
<g mask="url(#mask22_302_179)">
<path d="M159.545 123.324C140.645 143.397 158.426 156.59 158.426 156.59C158.426 156.59 123.355 160.286 122.856 158.83C122.357 157.374 120.308 131.141 120.308 131.141L141.361 129.129" fill="url(#paint107_linear_302_179)"/>
</g>
<path d="M124.444 115.792C124.444 115.792 119.788 119.936 120.356 127.104L131.614 139.569C133.726 141.908 136.962 142.17 139.331 140.193L159.545 123.324C162.572 120.798 163.321 115.914 161.232 112.319C159.047 108.559 154.622 107.674 151.49 110.372L135.616 124.047L124.444 115.792Z" fill="url(#paint108_linear_302_179)"/>
<defs>
<linearGradient id="paint0_linear_302_179" x1="2.36277e-05" y1="236.034" x2="334.853" y2="236.034" gradientUnits="userSpaceOnUse">
<stop offset="0.1011" stop-color="#FFDF94"/>
<stop offset="1" stop-color="#58F1FE"/>
</linearGradient>
<linearGradient id="paint1_linear_302_179" x1="31.1285" y1="235.922" x2="307.119" y2="235.922" gradientUnits="userSpaceOnUse">
<stop offset="0.1035" stop-color="#F6FBFF"/>
<stop offset="0.8866" stop-color="#E9EFFC"/>
</linearGradient>
<linearGradient id="paint2_linear_302_179" x1="31.1285" y1="76.59" x2="307.119" y2="76.59" gradientUnits="userSpaceOnUse">
<stop offset="0.0083" stop-color="#00CAFE"/>
<stop offset="1" stop-color="#0088FA"/>
</linearGradient>
<linearGradient id="paint3_linear_302_179" x1="60.4165" y1="156.489" x2="118.175" y2="156.489" gradientUnits="userSpaceOnUse">
<stop offset="0.1035" stop-color="#F6FBFF"/>
<stop offset="0.8866" stop-color="#E9EFFC"/>
</linearGradient>
<linearGradient id="paint4_linear_302_179" x1="64.6881" y1="171.146" x2="112.231" y2="171.146" gradientUnits="userSpaceOnUse">
<stop offset="0.1035" stop-color="#F6FBFF"/>
<stop offset="0.8866" stop-color="#E9EFFC"/>
</linearGradient>
<linearGradient id="paint5_linear_302_179" x1="64.6881" y1="179.257" x2="99.266" y2="179.257" gradientUnits="userSpaceOnUse">
<stop offset="0.1035" stop-color="#F6FBFF"/>
<stop offset="0.8866" stop-color="#E9EFFC"/>
</linearGradient>
<linearGradient id="paint6_linear_302_179" x1="96.6442" y1="167.482" x2="124.35" y2="128.61" gradientUnits="userSpaceOnUse">
<stop offset="0.0035" stop-color="#4AAAFD"/>
<stop offset="1" stop-color="#00DED8"/>
</linearGradient>
<linearGradient id="paint7_linear_302_179" x1="233.009" y1="156.489" x2="290.767" y2="156.489" gradientUnits="userSpaceOnUse">
<stop offset="0.1035" stop-color="#F6FBFF"/>
<stop offset="0.8866" stop-color="#E9EFFC"/>
</linearGradient>
<linearGradient id="paint8_linear_302_179" x1="237.281" y1="171.146" x2="284.823" y2="171.146" gradientUnits="userSpaceOnUse">
<stop offset="0.1035" stop-color="#F6FBFF"/>
<stop offset="0.8866" stop-color="#E9EFFC"/>
</linearGradient>
<linearGradient id="paint9_linear_302_179" x1="237.281" y1="179.257" x2="271.859" y2="179.257" gradientUnits="userSpaceOnUse">
<stop offset="0.1035" stop-color="#F6FBFF"/>
<stop offset="0.8866" stop-color="#E9EFFC"/>
</linearGradient>
<linearGradient id="paint10_linear_302_179" x1="246.61" y1="148.186" x2="277.166" y2="148.186" gradientUnits="userSpaceOnUse">
<stop offset="0.0048" stop-color="#B68BFF"/>
<stop offset="0.9986" stop-color="#8948FF"/>
</linearGradient>
<linearGradient id="paint11_linear_302_179" x1="272.815" y1="128.424" x2="277.167" y2="128.424" gradientUnits="userSpaceOnUse">
<stop offset="0.0048" stop-color="#B68BFF"/>
<stop offset="0.9986" stop-color="#8948FF"/>
</linearGradient>
<linearGradient id="paint12_linear_302_179" x1="246.61" y1="128.499" x2="250.962" y2="128.499" gradientUnits="userSpaceOnUse">
<stop offset="0.0048" stop-color="#B68BFF"/>
<stop offset="0.9986" stop-color="#8948FF"/>
</linearGradient>
<linearGradient id="paint13_linear_302_179" x1="246.748" y1="116.545" x2="277.029" y2="116.545" gradientUnits="userSpaceOnUse">
<stop offset="0.0048" stop-color="#B68BFF"/>
<stop offset="0.9986" stop-color="#8948FF"/>
</linearGradient>
<linearGradient id="paint14_linear_302_179" x1="146.713" y1="156.489" x2="204.471" y2="156.489" gradientUnits="userSpaceOnUse">
<stop offset="0.1035" stop-color="#F6FBFF"/>
<stop offset="0.8866" stop-color="#E9EFFC"/>
</linearGradient>
<linearGradient id="paint15_linear_302_179" x1="150.984" y1="171.146" x2="198.527" y2="171.146" gradientUnits="userSpaceOnUse">
<stop offset="0.1035" stop-color="#F6FBFF"/>
<stop offset="0.8866" stop-color="#E9EFFC"/>
</linearGradient>
<linearGradient id="paint16_linear_302_179" x1="150.984" y1="179.257" x2="185.562" y2="179.257" gradientUnits="userSpaceOnUse">
<stop offset="0.1035" stop-color="#F6FBFF"/>
<stop offset="0.8866" stop-color="#E9EFFC"/>
</linearGradient>
<linearGradient id="paint17_linear_302_179" x1="232.667" y1="197.178" x2="254.803" y2="197.178" gradientUnits="userSpaceOnUse">
<stop offset="0.1011" stop-color="#FFDF94"/>
<stop offset="1" stop-color="#FFA200"/>
</linearGradient>
<linearGradient id="paint18_linear_302_179" x1="232.667" y1="197.179" x2="251.119" y2="197.179" gradientUnits="userSpaceOnUse">
<stop offset="0.1011" stop-color="#FFDF94"/>
<stop offset="1" stop-color="#FFA200"/>
</linearGradient>
<linearGradient id="paint19_linear_302_179" x1="214.216" y1="193.82" x2="229.308" y2="193.82" gradientUnits="userSpaceOnUse">
<stop offset="0.1011" stop-color="#FFDF94"/>
<stop offset="1" stop-color="#FFA200"/>
</linearGradient>
<linearGradient id="paint20_linear_302_179" x1="210.531" y1="197.178" x2="232.667" y2="197.178" gradientUnits="userSpaceOnUse">
<stop offset="0.1011" stop-color="#FFDF94"/>
<stop offset="1" stop-color="#FFA200"/>
</linearGradient>
<linearGradient id="paint21_linear_302_179" x1="230.071" y1="198.448" x2="230.244" y2="203.718" gradientUnits="userSpaceOnUse">
<stop offset="0.1011" stop-color="#FFDF94"/>
<stop offset="1" stop-color="#FFA200"/>
</linearGradient>
<linearGradient id="paint22_linear_302_179" x1="260.217" y1="249.314" x2="260.081" y2="215.105" gradientUnits="userSpaceOnUse">
<stop offset="0.0048" stop-color="#FF88D6"/>
<stop offset="0.9986" stop-color="#FF16B4"/>
</linearGradient>
<linearGradient id="paint23_linear_302_179" x1="283.007" y1="213.02" x2="282.971" y2="194.359" gradientUnits="userSpaceOnUse">
<stop offset="0.0048" stop-color="#FF88D6"/>
<stop offset="0.9986" stop-color="#FF16B4"/>
</linearGradient>
<linearGradient id="paint24_linear_302_179" x1="241.258" y1="239.694" x2="241.258" y2="191.491" gradientUnits="userSpaceOnUse">
<stop offset="0.1011" stop-color="#FFDF94"/>
<stop offset="1" stop-color="#FFA200"/>
</linearGradient>
<linearGradient id="paint25_linear_302_179" x1="265.339" y1="218.327" x2="265.524" y2="228.255" gradientUnits="userSpaceOnUse">
<stop offset="0.1011" stop-color="#FFDF94"/>
<stop offset="1" stop-color="#FFA200"/>
</linearGradient>
<linearGradient id="paint26_linear_302_179" x1="269.643" y1="213.515" x2="279.409" y2="213.515" gradientUnits="userSpaceOnUse">
<stop offset="0.1011" stop-color="#FFDF94"/>
<stop offset="1" stop-color="#FFA200"/>
</linearGradient>
<linearGradient id="paint27_linear_302_179" x1="259.771" y1="219.505" x2="260.615" y2="229.422" gradientUnits="userSpaceOnUse">
<stop offset="0.1011" stop-color="#FFDF94"/>
<stop offset="1" stop-color="#FFA200"/>
</linearGradient>
<linearGradient id="paint28_linear_302_179" x1="264.162" y1="213.516" x2="269.643" y2="213.516" gradientUnits="userSpaceOnUse">
<stop offset="0.1011" stop-color="#FFDF94"/>
<stop offset="1" stop-color="#FFA200"/>
</linearGradient>
<linearGradient id="paint29_linear_302_179" x1="270.322" y1="219.033" x2="272.483" y2="228.654" gradientUnits="userSpaceOnUse">
<stop offset="0.1011" stop-color="#FFDF94"/>
<stop offset="1" stop-color="#FFA200"/>
</linearGradient>
<linearGradient id="paint30_linear_302_179" x1="257.926" y1="213.515" x2="269.643" y2="213.515" gradientUnits="userSpaceOnUse">
<stop offset="0.1011" stop-color="#FFDF94"/>
<stop offset="1" stop-color="#FFA200"/>
</linearGradient>
<linearGradient id="paint31_linear_302_179" x1="274.505" y1="218.985" x2="274.322" y2="209.474" gradientUnits="userSpaceOnUse">
<stop stop-color="#FFB926"/>
<stop offset="1" stop-color="#FE6325"/>
</linearGradient>
<linearGradient id="paint32_linear_302_179" x1="290.677" y1="244.344" x2="291.941" y2="215.379" gradientUnits="userSpaceOnUse">
<stop offset="0.0048" stop-color="#B68BFF"/>
<stop offset="0.9986" stop-color="#8948FF"/>
</linearGradient>
<linearGradient id="paint33_linear_302_179" x1="237.205" y1="207.262" x2="237.2" y2="219.499" gradientUnits="userSpaceOnUse">
<stop offset="0.0048" stop-color="#B68BFF"/>
<stop offset="0.9986" stop-color="#8948FF"/>
</linearGradient>
<linearGradient id="paint34_linear_302_179" x1="265.007" y1="237.733" x2="274.279" y2="237.733" gradientUnits="userSpaceOnUse">
<stop offset="0.1011" stop-color="#FFDF94"/>
<stop offset="1" stop-color="#FFA200"/>
</linearGradient>
<linearGradient id="paint35_linear_302_179" x1="274.752" y1="225.232" x2="274.752" y2="219.131" gradientUnits="userSpaceOnUse">
<stop offset="0.0012" stop-color="#FFED15" stop-opacity="0.01"/>
<stop offset="0.6163" stop-color="#FEA415"/>
</linearGradient>
<linearGradient id="paint36_linear_302_179" x1="275.011" y1="226.824" x2="284.168" y2="226.824" gradientUnits="userSpaceOnUse">
<stop offset="0.1011" stop-color="#FFDF94"/>
<stop offset="1" stop-color="#FFA200"/>
</linearGradient>
<linearGradient id="paint37_linear_302_179" x1="101.052" y1="188.986" x2="116.922" y2="188.986" gradientUnits="userSpaceOnUse">
<stop offset="0.1011" stop-color="#FFDF94"/>
<stop offset="1" stop-color="#FFA200"/>
</linearGradient>
<linearGradient id="paint38_linear_302_179" x1="91.4761" y1="237.291" x2="130.001" y2="237.291" gradientUnits="userSpaceOnUse">
<stop offset="0.0338" stop-color="#2F7CFF"/>
<stop offset="1" stop-color="#0457F7"/>
</linearGradient>
<linearGradient id="paint39_linear_302_179" x1="84.1861" y1="237.291" x2="122.711" y2="237.291" gradientUnits="userSpaceOnUse">
<stop offset="0.0083" stop-color="#00CAFE"/>
<stop offset="1" stop-color="#0088FA"/>
</linearGradient>
<linearGradient id="paint40_linear_302_179" x1="70.4806" y1="253.113" x2="127.191" y2="253.113" gradientUnits="userSpaceOnUse">
<stop offset="0.0083" stop-color="#00CAFE"/>
<stop offset="1" stop-color="#0088FA"/>
</linearGradient>
<linearGradient id="paint41_linear_302_179" x1="95.5139" y1="188.986" x2="111.383" y2="188.986" gradientUnits="userSpaceOnUse">
<stop offset="0.1011" stop-color="#FFDF94"/>
<stop offset="1" stop-color="#FFA200"/>
</linearGradient>
<linearGradient id="paint42_linear_302_179" x1="56.1434" y1="182.745" x2="57.3975" y2="218.47" gradientUnits="userSpaceOnUse">
<stop offset="0.1011" stop-color="#FF7638"/>
<stop offset="0.8855" stop-color="#FF3929"/>
</linearGradient>
<linearGradient id="paint43_linear_302_179" x1="33.2226" y1="227.153" x2="77.4685" y2="238.941" gradientUnits="userSpaceOnUse">
<stop offset="0.1011" stop-color="#FFDF94"/>
<stop offset="1" stop-color="#FFA200"/>
</linearGradient>
<linearGradient id="paint44_linear_302_179" x1="42.2255" y1="195.482" x2="64.6484" y2="247.168" gradientUnits="userSpaceOnUse">
<stop offset="0.1011" stop-color="#FFDF94"/>
<stop offset="1" stop-color="#FFA200"/>
</linearGradient>
<linearGradient id="paint45_linear_302_179" x1="52.0659" y1="161.713" x2="36.6563" y2="233.989" gradientUnits="userSpaceOnUse">
<stop offset="0.1011" stop-color="#FFDF94"/>
<stop offset="1" stop-color="#FFA200"/>
</linearGradient>
<linearGradient id="paint46_linear_302_179" x1="90.1065" y1="203.758" x2="84.7287" y2="179.063" gradientUnits="userSpaceOnUse">
<stop offset="0.1011" stop-color="#FF7638"/>
<stop offset="0.8855" stop-color="#FF3929"/>
</linearGradient>
<linearGradient id="paint47_linear_302_179" x1="79.9379" y1="118.083" x2="67.3447" y2="253.046" gradientUnits="userSpaceOnUse">
<stop offset="0.0048" stop-color="#B68BFF"/>
<stop offset="0.9986" stop-color="#8948FF"/>
</linearGradient>
<linearGradient id="paint48_linear_302_179" x1="-201.213" y1="137.77" x2="-201.498" y2="207.203" gradientUnits="userSpaceOnUse">
<stop offset="0.1023" stop-color="#915758"/>
<stop offset="0.8855" stop-color="#2C090B"/>
</linearGradient>
<linearGradient id="paint49_linear_302_179" x1="149.261" y1="207.209" x2="190.136" y2="207.209" gradientUnits="userSpaceOnUse">
<stop offset="0.1023" stop-color="#DCDFF8"/>
<stop offset="0.8855" stop-color="#F5F7FE"/>
</linearGradient>
<linearGradient id="paint50_linear_302_179" x1="196.435" y1="207.209" x2="211.686" y2="207.209" gradientUnits="userSpaceOnUse">
<stop offset="0.1023" stop-color="#DCDFF8"/>
<stop offset="0.8855" stop-color="#F5F7FE"/>
</linearGradient>
<linearGradient id="paint51_linear_302_179" x1="81.9961" y1="134.373" x2="82.3461" y2="231.217" gradientUnits="userSpaceOnUse">
<stop offset="0.0048" stop-color="#B68BFF"/>
<stop offset="0.9986" stop-color="#8948FF"/>
</linearGradient>
<linearGradient id="paint52_linear_302_179" x1="207.231" y1="206.368" x2="218.085" y2="206.368" gradientUnits="userSpaceOnUse">
<stop offset="0.1023" stop-color="#FCADBA"/>
<stop offset="0.8855" stop-color="#FBDAD9"/>
</linearGradient>
<linearGradient id="paint53_linear_302_179" x1="207.534" y1="187.342" x2="218.382" y2="187.342" gradientUnits="userSpaceOnUse">
<stop offset="0.1011" stop-color="#FF7638"/>
<stop offset="0.8855" stop-color="#FF3929"/>
</linearGradient>
<linearGradient id="paint54_linear_302_179" x1="191.561" y1="246.96" x2="195.429" y2="242.468" gradientUnits="userSpaceOnUse">
<stop offset="0.1011" stop-color="#FFC0A0"/>
<stop offset="0.8855" stop-color="#FF3513"/>
</linearGradient>
<linearGradient id="paint55_linear_302_179" x1="273.16" y1="212.431" x2="234.912" y2="124.084" gradientUnits="userSpaceOnUse">
<stop offset="0.0048" stop-color="#FFD6A4"/>
<stop offset="0.9986" stop-color="#FF8734"/>
</linearGradient>
<linearGradient id="paint56_linear_302_179" x1="197.662" y1="173.723" x2="197.662" y2="171.452" gradientUnits="userSpaceOnUse">
<stop offset="0.0048" stop-color="#F9C491"/>
<stop offset="0.9986" stop-color="#F96F24"/>
</linearGradient>
<linearGradient id="paint57_linear_302_179" x1="193.432" y1="237.884" x2="207.786" y2="237.884" gradientUnits="userSpaceOnUse">
<stop offset="0.1023" stop-color="#FCADBA"/>
<stop offset="0.8855" stop-color="#FBDAD9"/>
</linearGradient>
<linearGradient id="paint58_linear_302_179" x1="191.59" y1="222.86" x2="202.698" y2="222.86" gradientUnits="userSpaceOnUse">
<stop offset="0.1011" stop-color="#FF7638"/>
<stop offset="0.8855" stop-color="#FF3929"/>
</linearGradient>
<linearGradient id="paint59_linear_302_179" x1="199.403" y1="249.515" x2="201.047" y2="243.795" gradientUnits="userSpaceOnUse">
<stop offset="0.1011" stop-color="#FFC0A0"/>
<stop offset="0.8855" stop-color="#FF3513"/>
</linearGradient>
<linearGradient id="paint60_linear_302_179" x1="214.465" y1="154.025" x2="234.795" y2="112.957" gradientUnits="userSpaceOnUse">
<stop offset="0.1023" stop-color="#FCADBA"/>
<stop offset="0.8855" stop-color="#FBDAD9"/>
</linearGradient>
<linearGradient id="paint61_linear_302_179" x1="196.955" y1="145.763" x2="212.838" y2="129.561" gradientUnits="userSpaceOnUse">
<stop offset="0.1011" stop-color="#FF7638"/>
<stop offset="0.8855" stop-color="#FF3929"/>
</linearGradient>
<linearGradient id="paint62_linear_302_179" x1="216.34" y1="121.093" x2="216.234" y2="124.263" gradientUnits="userSpaceOnUse">
<stop offset="0.0048" stop-color="#B68BFF"/>
<stop offset="0.9986" stop-color="#8948FF"/>
</linearGradient>
<linearGradient id="paint63_linear_302_179" x1="215.273" y1="106.203" x2="203.441" y2="113.033" gradientUnits="userSpaceOnUse">
<stop offset="0.0048" stop-color="#B68BFF"/>
<stop offset="0.9986" stop-color="#8948FF"/>
</linearGradient>
<linearGradient id="paint64_linear_302_179" x1="210.035" y1="118.34" x2="206.371" y2="127.869" gradientUnits="userSpaceOnUse">
<stop offset="0.0048" stop-color="#FFD6A4"/>
<stop offset="0.9986" stop-color="#FF8734"/>
</linearGradient>
<linearGradient id="paint65_linear_302_179" x1="211.719" y1="131.274" x2="211.728" y2="130.084" gradientUnits="userSpaceOnUse">
<stop offset="0.0048" stop-color="#B68BFF"/>
<stop offset="0.9986" stop-color="#8948FF"/>
</linearGradient>
<linearGradient id="paint66_linear_302_179" x1="200.358" y1="170.015" x2="237.809" y2="158.773" gradientUnits="userSpaceOnUse">
<stop offset="0.1023" stop-color="#FCADBA"/>
<stop offset="0.8855" stop-color="#FBDAD9"/>
</linearGradient>
<linearGradient id="paint67_linear_302_179" x1="205.718" y1="172.567" x2="235.838" y2="166.547" gradientUnits="userSpaceOnUse">
<stop offset="0.1023" stop-color="#FCADBA"/>
<stop offset="0.8855" stop-color="#FBDAD9"/>
</linearGradient>
<linearGradient id="paint68_linear_302_179" x1="232.389" y1="199.81" x2="167.815" y2="164.822" gradientUnits="userSpaceOnUse">
<stop offset="0.0048" stop-color="#FFD6A4"/>
<stop offset="0.9986" stop-color="#FF8734"/>
</linearGradient>
<linearGradient id="paint69_linear_302_179" x1="158.718" y1="191.43" x2="162.801" y2="189.294" gradientUnits="userSpaceOnUse">
<stop offset="0.0048" stop-color="#FFD6A4"/>
<stop offset="0.9986" stop-color="#FF8734"/>
</linearGradient>
<linearGradient id="paint70_linear_302_179" x1="175.205" y1="136.389" x2="196.512" y2="136.389" gradientUnits="userSpaceOnUse">
<stop offset="0.1023" stop-color="#FCADBA"/>
<stop offset="0.8855" stop-color="#FBDAD9"/>
</linearGradient>
<linearGradient id="paint71_linear_302_179" x1="179.673" y1="94.3353" x2="171.084" y2="117.281" gradientUnits="userSpaceOnUse">
<stop offset="0.0035" stop-color="#008AEE"/>
<stop offset="1" stop-color="#00CFCA"/>
</linearGradient>
<linearGradient id="paint72_linear_302_179" x1="185.152" y1="88.9036" x2="177.013" y2="97.6277" gradientUnits="userSpaceOnUse">
<stop offset="0.1023" stop-color="#FCADBA"/>
<stop offset="0.8855" stop-color="#FBDAD9"/>
</linearGradient>
<linearGradient id="paint73_linear_302_179" x1="193.224" y1="160.504" x2="208.662" y2="122.4" gradientUnits="userSpaceOnUse">
<stop offset="0.0035" stop-color="#008AEE"/>
<stop offset="1" stop-color="#00CFCA"/>
</linearGradient>
<linearGradient id="paint74_linear_302_179" x1="195.818" y1="72.1728" x2="177.684" y2="87.2315" gradientUnits="userSpaceOnUse">
<stop offset="0.1023" stop-color="#915758"/>
<stop offset="0.8855" stop-color="#2C090B"/>
</linearGradient>
<linearGradient id="paint75_linear_302_179" x1="171.545" y1="105.085" x2="171.63" y2="104.683" gradientUnits="userSpaceOnUse">
<stop stop-color="#262C61"/>
<stop offset="1" stop-color="#030319"/>
</linearGradient>
<linearGradient id="paint76_linear_302_179" x1="177.725" y1="101.369" x2="188.12" y2="104.455" gradientUnits="userSpaceOnUse">
<stop offset="0.1023" stop-color="#FCADBA"/>
<stop offset="0.8855" stop-color="#FBDAD9"/>
</linearGradient>
<linearGradient id="paint77_linear_302_179" x1="185.968" y1="105.226" x2="193.572" y2="96.2222" gradientUnits="userSpaceOnUse">
<stop offset="0.1011" stop-color="#FF7638"/>
<stop offset="0.8855" stop-color="#FF3929"/>
</linearGradient>
<linearGradient id="paint78_linear_302_179" x1="180.157" y1="111.599" x2="198.664" y2="104.702" gradientUnits="userSpaceOnUse">
<stop offset="0.1023" stop-color="#FCADBA"/>
<stop offset="0.8855" stop-color="#FBDAD9"/>
</linearGradient>
<linearGradient id="paint79_linear_302_179" x1="193.268" y1="74.144" x2="184.076" y2="87.3335" gradientUnits="userSpaceOnUse">
<stop offset="0.1023" stop-color="#915758"/>
<stop offset="0.8855" stop-color="#2C090B"/>
</linearGradient>
<linearGradient id="paint80_linear_302_179" x1="177.632" y1="108.907" x2="196.419" y2="101.962" gradientUnits="userSpaceOnUse">
<stop offset="0.1023" stop-color="#FCADBA"/>
<stop offset="0.8855" stop-color="#FBDAD9"/>
</linearGradient>
<linearGradient id="paint81_linear_302_179" x1="206.75" y1="75.7437" x2="157.485" y2="75.8417" gradientUnits="userSpaceOnUse">
<stop offset="0.1023" stop-color="#FCADBA"/>
<stop offset="0.8855" stop-color="#FBDAD9"/>
</linearGradient>
<linearGradient id="paint82_linear_302_179" x1="189.439" y1="117.065" x2="157.498" y2="118.098" gradientUnits="userSpaceOnUse">
<stop offset="0.1011" stop-color="#FF7638"/>
<stop offset="0.8855" stop-color="#FF3929"/>
</linearGradient>
<linearGradient id="paint83_linear_302_179" x1="170.96" y1="92.1643" x2="162.055" y2="115.044" gradientUnits="userSpaceOnUse">
<stop offset="0.0035" stop-color="#008AEE"/>
<stop offset="1" stop-color="#00CFCA"/>
</linearGradient>
<linearGradient id="paint84_linear_302_179" x1="209.563" y1="97.2564" x2="201.53" y2="98.8865" gradientUnits="userSpaceOnUse">
<stop offset="0.0048" stop-color="#FF88D6"/>
<stop offset="0.9986" stop-color="#FF16B4"/>
</linearGradient>
<linearGradient id="paint85_linear_302_179" x1="165.627" y1="113.089" x2="154.088" y2="86.8412" gradientUnits="userSpaceOnUse">
<stop offset="0.1023" stop-color="#FCADBA"/>
<stop offset="0.8855" stop-color="#FBDAD9"/>
</linearGradient>
<linearGradient id="paint86_linear_302_179" x1="146.182" y1="111.291" x2="154.185" y2="111.291" gradientUnits="userSpaceOnUse">
<stop offset="0.1011" stop-color="#FF7638"/>
<stop offset="0.8855" stop-color="#FF3929"/>
</linearGradient>
<linearGradient id="paint87_linear_302_179" x1="160.516" y1="110.969" x2="153.098" y2="89.1513" gradientUnits="userSpaceOnUse">
<stop offset="0.1023" stop-color="#FCADBA"/>
<stop offset="0.8855" stop-color="#FBDAD9"/>
</linearGradient>
<linearGradient id="paint88_linear_302_179" x1="158.631" y1="79.6229" x2="150.308" y2="81.8972" gradientUnits="userSpaceOnUse">
<stop offset="0.1023" stop-color="#915758"/>
<stop offset="0.8855" stop-color="#2C090B"/>
</linearGradient>
<linearGradient id="paint89_linear_302_179" x1="152.31" y1="78.2053" x2="151.818" y2="78.2496" gradientUnits="userSpaceOnUse">
<stop offset="0.0014" stop-color="#FFB65C"/>
<stop offset="0.9609" stop-color="#F65550"/>
</linearGradient>
<linearGradient id="paint90_linear_302_179" x1="148.596" y1="99.585" x2="160.235" y2="99.585" gradientUnits="userSpaceOnUse">
<stop offset="0.0014" stop-color="#FFB65C"/>
<stop offset="0.9609" stop-color="#F65550"/>
</linearGradient>
<linearGradient id="paint91_linear_302_179" x1="148.481" y1="112.709" x2="160.837" y2="112.709" gradientUnits="userSpaceOnUse">
<stop offset="0.0035" stop-color="#4A6FFD"/>
<stop offset="1" stop-color="#0093DE"/>
</linearGradient>
<linearGradient id="paint92_linear_302_179" x1="120.891" y1="131.141" x2="139.141" y2="131.141" gradientUnits="userSpaceOnUse">
<stop offset="0.1023" stop-color="#FCADBA"/>
<stop offset="0.8855" stop-color="#FBDAD9"/>
</linearGradient>
<linearGradient id="paint93_linear_302_179" x1="107.389" y1="107.793" x2="117.983" y2="107.911" gradientUnits="userSpaceOnUse">
<stop offset="0.1023" stop-color="#915758"/>
<stop offset="0.8855" stop-color="#2C090B"/>
</linearGradient>
<linearGradient id="paint94_linear_302_179" x1="108.824" y1="107.057" x2="119.419" y2="107.175" gradientUnits="userSpaceOnUse">
<stop offset="0.0035" stop-color="#4A9FFD"/>
<stop offset="1" stop-color="#00D7DE"/>
</linearGradient>
<linearGradient id="paint95_linear_302_179" x1="109.397" y1="132.946" x2="126.893" y2="133.112" gradientUnits="userSpaceOnUse">
<stop offset="0.1023" stop-color="#FCADBA"/>
<stop offset="0.8855" stop-color="#FBDAD9"/>
</linearGradient>
<linearGradient id="paint96_linear_302_179" x1="118.148" y1="126.218" x2="124.56" y2="126.218" gradientUnits="userSpaceOnUse">
<stop offset="0.1011" stop-color="#FF7638"/>
<stop offset="0.8855" stop-color="#FF3929"/>
</linearGradient>
<linearGradient id="paint97_linear_302_179" x1="110.679" y1="210.079" x2="123.953" y2="210.079" gradientUnits="userSpaceOnUse">
<stop offset="0.1023" stop-color="#FCADBA"/>
<stop offset="0.8855" stop-color="#FBDAD9"/>
</linearGradient>
<linearGradient id="paint98_linear_302_179" x1="112.856" y1="205.419" x2="122.679" y2="205.419" gradientUnits="userSpaceOnUse">
<stop offset="0.1011" stop-color="#FF7638"/>
<stop offset="0.8855" stop-color="#FF3929"/>
</linearGradient>
<linearGradient id="paint99_linear_302_179" x1="101.738" y1="269.086" x2="165.561" y2="237.835" gradientUnits="userSpaceOnUse">
<stop offset="0.1011" stop-color="#FFA9E1"/>
<stop offset="0.8855" stop-color="#E814FF"/>
</linearGradient>
<linearGradient id="paint100_linear_302_179" x1="98.7198" y1="221.427" x2="126.773" y2="221.427" gradientUnits="userSpaceOnUse">
<stop offset="0.1023" stop-color="#915758"/>
<stop offset="0.8855" stop-color="#2C090B"/>
</linearGradient>
<linearGradient id="paint101_linear_302_179" x1="74.6352" y1="212.472" x2="91.0141" y2="212.472" gradientUnits="userSpaceOnUse">
<stop offset="0.1023" stop-color="#FCADBA"/>
<stop offset="0.8855" stop-color="#FBDAD9"/>
</linearGradient>
<linearGradient id="paint102_linear_302_179" x1="79.2132" y1="207.008" x2="87.2781" y2="207.008" gradientUnits="userSpaceOnUse">
<stop offset="0.1011" stop-color="#FF7638"/>
<stop offset="0.8855" stop-color="#FF3929"/>
</linearGradient>
<linearGradient id="paint103_linear_302_179" x1="53.8654" y1="220.862" x2="82.5877" y2="220.862" gradientUnits="userSpaceOnUse">
<stop offset="0.1023" stop-color="#915758"/>
<stop offset="0.8855" stop-color="#2C090B"/>
</linearGradient>
<linearGradient id="paint104_linear_302_179" x1="79.2087" y1="204.205" x2="159.611" y2="204.205" gradientUnits="userSpaceOnUse">
<stop offset="0.1011" stop-color="#FFA9E1"/>
<stop offset="0.8855" stop-color="#E814FF"/>
</linearGradient>
<linearGradient id="paint105_linear_302_179" x1="144.506" y1="178.584" x2="145.051" y2="177.415" gradientUnits="userSpaceOnUse">
<stop offset="0.1011" stop-color="#FF9DE8"/>
<stop offset="0.8855" stop-color="#CC08FF"/>
</linearGradient>
<linearGradient id="paint106_linear_302_179" x1="128.409" y1="156.59" x2="165.476" y2="156.59" gradientUnits="userSpaceOnUse">
<stop offset="0.0035" stop-color="#4A91FD"/>
<stop offset="1" stop-color="#00C6DE"/>
</linearGradient>
<linearGradient id="paint107_linear_302_179" x1="85.6456" y1="125.681" x2="102.948" y2="217.576" gradientUnits="userSpaceOnUse">
<stop offset="0.0035" stop-color="#4A91FD"/>
<stop offset="1" stop-color="#00C6DE"/>
</linearGradient>
<linearGradient id="paint108_linear_302_179" x1="125.436" y1="147.584" x2="167.189" y2="147.584" gradientUnits="userSpaceOnUse">
<stop offset="0.0035" stop-color="#4A9FFD"/>
<stop offset="1" stop-color="#00D7DE"/>
</linearGradient>
</defs>
</svg>
